{"asset":{"version":"2.0","generator":"THREE.GLTFExporter"},"scenes":[{"name":"AuxScene","nodes":[0]}],"scene":0,"nodes":[{"mesh":0}],"bufferViews":[{"buffer":0,"byteOffset":0,"byteLength":96552,"target":34962,"byteStride":12},{"buffer":0,"byteOffset":96552,"byteLength":96552,"target":34962,"byteStride":12},{"buffer":0,"byteOffset":193104,"byteLength":96552,"target":34962,"byteStride":12},{"buffer":0,"byteOffset":289656,"byteLength":64368,"target":34962,"byteStride":8},{"buffer":0,"byteOffset":354024,"byteLength":16092,"target":34963}],"buffers":[{"byteLength":370116,"uri":"data:application/octet-stream;base64,"}],"accessors":[{"bufferView":0,"componentType":5126,"count":8046,"max":[7.105427357601002e-15,2.0014872550964355,4.00124979019165],"min":[-36,-0.0012205307139083743,-34.002349853515625],"type":"VEC3"},{"bufferView":1,"componentType":5126,"count":8046,"max":[1,1,1],"min":[-1,-1,-1],"type":"VEC3"},{"bufferView":2,"componentType":5126,"count":8046,"max":[1,1,1],"min":[1,1,1],"type":"VEC3"},{"bufferView":3,"componentType":5126,"count":8046,"max":[0.25,0.25],"min":[0,0],"type":"VEC2"},{"bufferView":4,"componentType":5123,"count":8046,"max":[8045],"min":[0],"type":"SCALAR"}],"materials":[{"pbrMetallicRoughness":{"metallicFactor":0,"roughnessFactor":0.9,"baseColorTexture":{"index":0}},"extensions":{"KHR_materials_unlit":{}},"alphaMode":"MASK","alphaCutoff":0.01}],"textures":[{"sampler":0,"source":0}],"samplers":[{"magFilter":9728,"minFilter":9728,"wrapS":33071,"wrapT":33071}],"images":[{"mimeType":"image/png","uri":"data:image/png;base64,"}],"meshes":[{"primitives":[{"mode":4,"attributes":{"POSITION":0,"NORMAL":1,"COLOR_0":2,"TEXCOORD_0":3},"indices":4,"material":0}]}],"extensionsUsed":["KHR_materials_unlit"]}